<svg xmlns="http://www.w3.org/2000/svg" viewBox="0 0 72 84"><defs><style>.a{fill:#4b215b;}</style></defs><title>little</title><path class="a" d="M75,47c0-15-13.21-27.42-30.46-29.64A73.37,73.37,0,0,1,44,10c0-4,8-9,8-9H48s-2,1-5,6c-2,3.4-1.31,7.72-.63,10.14-1-.08-2.1-.13-3.16-.14A36.85,36.85,0,0,1,38,10a35.48,35.48,0,0,1,1-7L36,4c-1.54.77-.12,9.2.62,13.07q-1.92.11-3.79.37L28,7,24,6c2.38.79,4.6,8.85,6,12C13.76,20.9,3,32.6,3,47c0,12.42,9.06,23.08,22,27.64-.87,2.62-2.26,5.79-4,6.36l3,3s3.58-1,4-4a16.67,16.67,0,0,0,.1-4.4A42.63,42.63,0,0,0,39,77a43.27,43.27,0,0,0,6.11-.44A16.59,16.59,0,0,0,45.2,81c.42,3,4,4,4,4l3-3c-1.64-.55-3-3.48-3.86-6C63.7,72.54,75,60.87,75,47ZM33,73s-6-4-7-7,0-7,0-8a4.38,4.38,0,0,0,3,1h6s-3,3-3,6A53.84,53.84,0,0,0,33,73ZM26.5,51C20.7,51,16,45.18,16,38s4.7-13,10.5-13S37,30.82,37,38,32.3,51,26.5,51Zm28-2c-3,0-5.5-3.36-5.5-7.5S51.46,34,54.5,34,60,37.36,60,41.5,57.54,49,54.5,49Z" transform="translate(-3 -1)"/></svg>