<svg xmlns="http://www.w3.org/2000/svg" viewBox="0 0 121.14 220.67"><defs><style>.a{fill:none;}.b{fill:red;}</style></defs><title>monster</title><path class="a" d="M43.67,108.78v0c1.65,0,3-2.33,3.21-5.38-2.27.17-4.38.34-6.38.52C40.84,106.71,42.13,108.78,43.67,108.78Z" transform="translate(0 0)"/><path class="a" d="M54.24,53c-8.84,0-16,6.51-16,14.52S45.39,82,54.23,82v0c8.83,0,16-6.49,16-14.5S63.08,53,54.24,53Z" transform="translate(0 0)"/><path class="a" d="M49.25,103.28c.47,2.74,2.23,4.74,4.23,4.74v0c2,0,3.74-2,4.21-4.72A71.09,71.09,0,0,0,49.25,103.28Z" transform="translate(0 0)"/><path class="a" d="M55.39,121.9c-1.87.1-3.27,3.37-3.25,7.45,2.64-.26,5-.56,7-.89C58.75,124.69,57.16,121.84,55.39,121.9Z" transform="translate(0 0)"/><path class="a" d="M50.15,129.57c-.55-3.23-2-5.49-3.61-5.49s-2.93,2.61-3.17,6l1-.08C46.42,129.86,48.32,129.71,50.15,129.57Z" transform="translate(0 0)"/><path class="a" d="M38.9,126.91c-1.22.09-2.19,1.74-2.52,4.09,1.62-.32,3.36-.58,5.23-.76C41,128.22,40.12,126.82,38.9,126.91Z" transform="translate(0 0)"/><path class="a" d="M30.23,128l0,0c-2.06.13-3.64,2.85-3.58,6.17a35.65,35.65,0,0,1,7.28-2.63C33.23,129.4,31.78,128,30.23,128Z" transform="translate(0 0)"/><path class="a" d="M24.94,113c2.18,0,4-3.38,3.94-7.64v-.28l-7.87,1C21.18,110,22.88,113,24.94,113Z" transform="translate(0 0)"/><path class="a" d="M35,111.26v0c2.11,0,3.83-3.18,3.94-7.2-2.9.27-5.5.53-7.84.79C31.36,108.49,33,111.26,35,111.26Z" transform="translate(0 0)"/><path class="a" d="M33.16,78.73a6.08,6.08,0,1,0-6.08,6.08v0h0A6.08,6.08,0,0,0,33.16,78.73Z" transform="translate(0 0)"/><path class="b" d="M120,83.67c-5-43.22-41.08-68.56-72.44-70.42L50.32,0,47,1.67,43.53,13.14a57.44,57.44,0,0,0-5.94.33L39.32,0,34,1.67V14c-2.75.44-5.29,1-7.62,1.53L21.62,2.67,17.32,4l4.3,12.86C1.86,23.35,0,35.34,0,43.66c0,10,12.67,37,12.67,45.33S7,96.32,5.34,99.32s.12,4.8,2.33,6.33c2.39,1.66,5,1.48,11.9.62a10.18,10.18,0,0,0-.19,1.94c0,4.2,2.49,7.61,5.56,7.61,2.49,0,4.6-2.24,5.31-5.32,1,2.14,2.72,3.57,4.71,3.57,2.45,0,4.52-2.17,5.27-5.17a4.19,4.19,0,0,0,3.45,2.19c2,0,3.7-1.78,4.31-4.25a6.12,6.12,0,0,0,5.5,3.49,6.2,6.2,0,0,0,6.14-6.26h0v-.61c16.87,1.8,15.74,11.25,15.74,14.86,0,3.38-.21,7.36-14.83,9.91a12,12,0,0,0,0-1.65c-.18-4.28-2.54-7.67-5.27-7.55-2.22.09-4,2.45-4.5,5.62-1-2.15-2.57-3.55-4.34-3.47-2.18.09-3.93,2.38-4.47,5.47a3.72,3.72,0,0,0-3.17-2.11c-1.79.07-3.22,2-3.66,4.49a5.46,5.46,0,0,0-5-3.35c-3,.12-5.35,3.08-5.2,6.61a7.25,7.25,0,0,0,.55,2.5C13.87,141.29,14,152.53,14,158.33c0,7.19,8.09,26.5,32.24,33.23.22,2.09.54,5.4,1,10.44a32.12,32.12,0,0,1-1.33,10.5s-4.17.83-5.5,3a12.76,12.76,0,0,0-1.5,5.17h14a64.22,64.22,0,0,1-2.5-19.83c.09-2.26.28-5.3.58-8.16,1.3.25,2.63.48,4,.66a46,46,0,0,0,10.64.16c.22,2.41.37,4.83.44,6.72a64.22,64.22,0,0,1-2.5,19.83h14a12.76,12.76,0,0,0-1.5-5.17c-1.33-2.17-5.5-3-5.5-3a32.12,32.12,0,0,1-1.33-10.5c.34-3.75.61-6.53.81-8.58,21.2-4.45,32.53-23.62,35.27-27.46C108.66,160.67,125.66,132.33,120,83.67ZM28.88,105.36c0,4.26-1.76,7.64-3.94,7.64s-3.76-3-3.93-6.92l7.87-1ZM27.1,84.83h0v0a6.08,6.08,0,1,1,6.08-6.08A6.08,6.08,0,0,1,27.08,84.81ZM35,111.28v0c-2,0-3.59-2.77-3.9-6.39,2.34-.26,4.94-.52,7.84-.79C38.78,108.1,37.06,111.28,35,111.28Zm8.72-2.48v0c-1.54,0-2.83-2.07-3.17-4.84,2-.18,4.11-.35,6.38-.52C46.66,106.47,45.32,108.8,43.67,108.8Zm9.82-.8v0c-2,0-3.76-2-4.23-4.74a71.09,71.09,0,0,1,8.45,0C57.23,106,55.52,108,53.49,108Zm.75-26v0c-8.84,0-16-6.49-16-14.5S45.4,53,54.24,53s16,6.49,16,14.5S63.07,82,54.24,82Zm1.15,39.9h0c1.78-.06,3.36,2.78,3.75,6.56-2,.33-4.36.63-7,.89C52.12,125.27,53.52,122,55.39,121.9Zm-8.85,2.18c1.65,0,3.06,2.26,3.61,5.49-1.83.14-3.73.29-5.83.43l-1,.08C43.61,126.69,44.89,124.08,46.54,124.08Zm-7.64,2.83c1.22-.09,2.14,1.31,2.71,3.33-1.87.18-3.61.44-5.23.76C36.71,128.65,37.68,127,38.9,126.91ZM30.19,128l0,0c1.55-.06,3,1.38,3.66,3.52a35.65,35.65,0,0,0-7.28,2.63C26.55,130.85,28.13,128.13,30.19,128Z" transform="translate(0 0)"/><polygon class="b" points="55.38 121.9 55.39 121.9 55.39 121.9 55.38 121.9"/></svg>